<?xml version="1.0" standalone="no"?>
<!DOCTYPE svg PUBLIC "-//W3C//DTD SVG 20010904//EN"
 "http://www.w3.org/TR/2001/REC-SVG-20010904/DTD/svg10.dtd">
<svg version="1.0" xmlns="http://www.w3.org/2000/svg"
 width="328.000000pt" height="328.000000pt" viewBox="0 0 328.000000 328.000000"
 preserveAspectRatio="xMidYMid meet">
<metadata>
Created by potrace 1.11, written by Peter Selinger 2001-2013
</metadata>
<g transform="translate(0.000000,328.000000) scale(0.100000,-0.100000)"
fill="#000000" stroke="none">
<path d="M0 1640 l0 -1640 1640 0 1640 0 0 1640 0 1640 -1640 0 -1640 0 0
-1640z m2150 715 l0 -185 215 0 215 0 0 -150 0 -150 -216 0 -216 0 4 -272 c3
-268 3 -274 28 -323 37 -73 72 -90 185 -89 50 1 117 8 150 17 32 9 61 14 64
12 4 -5 50 -239 51 -262 0 -7 -37 -24 -82 -39 -101 -32 -283 -43 -395 -25
-142 24 -252 101 -306 212 -54 110 -57 159 -55 799 l3 585 155 26 c85 15 165
27 178 28 l22 1 0 -185z m-804 -156 c99 -17 194 -51 194 -68 0 -17 -67 -271
-73 -277 -1 -2 -32 6 -67 18 -97 31 -246 31 -318 -1 -64 -29 -114 -85 -144
-160 -29 -75 -31 -249 -5 -328 40 -114 100 -163 227 -184 81 -14 221 -1 303
27 26 9 50 15 51 13 2 -2 15 -70 28 -151 l25 -147 -21 -6 c-178 -55 -366 -70
-516 -41 -236 44 -405 201 -465 431 -26 97 -31 266 -11 365 25 128 91 257 176
340 78 77 198 143 300 165 79 16 235 19 316 4z"/>
</g>
</svg>
