<?xml version="1.0" encoding="UTF-8" standalone="no"?>
<svg width="215px" height="200px" viewBox="45 0 160 200" version="1.1" xmlns="http://www.w3.org/2000/svg" xmlns:xlink="http://www.w3.org/1999/xlink">
    <defs></defs>
    <g id="Page-4" stroke="none" stroke-width="1" fill="none" fill-rule="evenodd">
        <g id="web" transform="translate(0.000000, -18.000000)">
            <g id="faded" transform="translate(19.000000, 26.000000)">
                <g id="browser" transform="translate(123.000000, 168.000000)"></g>
                <path d="M149,101 L153,101 L153,105 L149,105 L149,101 L149,101 Z M141,101 L145,101 L145,105 L141,105 L141,101 L141,101 Z M133,101 L137,101 L137,105 L133,105 L133,101 L133,101 Z M181,141 L133,141 L133,109 L181,109 L181,141 L181,141 Z M181,105 L157,105 L157,101 L181,101 L181,105 L181,105 Z M185,101 C185,98.8 183.2,97 181,97 L133,97 C130.8,97 129,98.8 129,101 L129,141 C129,143.2 130.8,145 133,145 L181,145 C183.2,145 185,143.2 185,141 L185,101 L185,101 Z" id="4" fill="#f2f2f2"></path>
                <path d="M15,135 L18,135 L18,138 L15,138 L15,135 L15,135 Z M9,135 L12,135 L12,138 L9,138 L9,135 L9,135 Z M3,135 L6,135 L6,138 L3,138 L3,135 L3,135 Z M39,165 L3,165 L3,141 L39,141 L39,165 L39,165 Z M39,138 L21,138 L21,135 L39,135 L39,138 L39,138 Z M42,135 C42,133.35 40.65,132 39,132 L3,132 C1.35,132 0,133.35 0,135 L0,165 C0,166.65 1.35,168 3,168 L39,168 C40.65,168 42,166.65 42,165 L42,135 L42,135 Z" id="3" fill="#f2f2f2"></path>
                <path d="M75,87 L78,87 L78,90 L75,90 L75,87 L75,87 Z M69,87 L72,87 L72,90 L69,90 L69,87 L69,87 Z M63,87 L66,87 L66,90 L63,90 L63,87 L63,87 Z M99,117 L63,117 L63,93 L99,93 L99,117 L99,117 Z M99,90 L81,90 L81,87 L99,87 L99,90 L99,90 Z M102,87 C102,85.35 100.65,84 99,84 L63,84 C61.35,84 60,85.35 60,87 L60,117 C60,118.65 61.35,120 63,120 L99,120 C100.65,120 102,118.65 102,117 L102,87 L102,87 Z" id="3" fill="#f2f2f2"></path>
                <path d="M190,71 L192,71 L192,73 L190,73 L190,71 L190,71 Z M186,71 L188,71 L188,73 L186,73 L186,71 L186,71 Z M182,71 L184,71 L184,73 L182,73 L182,71 L182,71 Z M206,91 L182,91 L182,75 L206,75 L206,91 L206,91 Z M206,73 L194,73 L194,71 L206,71 L206,73 L206,73 Z M208,71 C208,69.9 207.1,69 206,69 L182,69 C180.9,69 180,69.9 180,71 L180,91 C180,92.1 180.9,93 182,93 L206,93 C207.1,93 208,92.1 208,91 L208,71 L208,71 Z" id="2" fill="#f2f2f2"></path>
                <path d="M22,79 L24,79 L24,81 L22,81 L22,79 L22,79 Z M18,79 L20,79 L20,81 L18,81 L18,79 L18,79 Z M14,79 L16,79 L16,81 L14,81 L14,79 L14,79 Z M38,99 L14,99 L14,83 L38,83 L38,99 L38,99 Z M38,81 L26,81 L26,79 L38,79 L38,81 L38,81 Z M40,79 C40,77.9 39.1,77 38,77 L14,77 C12.9,77 12,77.9 12,79 L12,99 C12,100.1 12.9,101 14,101 L38,101 C39.1,101 40,100.1 40,99 L40,79 L40,79 Z" id="2" fill="#f2f2f2"></path>
                <path d="M92,162 L94,162 L94,164 L92,164 L92,162 L92,162 Z M88,162 L90,162 L90,164 L88,164 L88,162 L88,162 Z M84,162 L86,162 L86,164 L84,164 L84,162 L84,162 Z M108,182 L84,182 L84,166 L108,166 L108,182 L108,182 Z M108,164 L96,164 L96,162 L108,162 L108,164 L108,164 Z M110,162 C110,160.9 109.1,160 108,160 L84,160 C82.9,160 82,160.9 82,162 L82,182 C82,183.1 82.9,184 84,184 L108,184 C109.1,184 110,183.1 110,182 L110,162 L110,162 Z" id="2" fill="#f2f2f2"></path>
                <path d="M162,2 L164,2 L164,4 L162,4 L162,2 L162,2 Z M158,2 L160,2 L160,4 L158,4 L158,2 L158,2 Z M154,2 L156,2 L156,4 L154,4 L154,2 L154,2 Z M178,22 L154,22 L154,6 L178,6 L178,22 L178,22 Z M178,4 L166,4 L166,2 L178,2 L178,4 L178,4 Z M180,2 C180,0.9 179.1,0 178,0 L154,0 C152.9,0 152,0.9 152,2 L152,22 C152,23.1 152.9,24 154,24 L178,24 C179.1,24 180,23.1 180,22 L180,2 L180,2 Z" id="2" fill="#f2f2f2"></path>
                <path d="M88,5 L89,5 L89,6 L88,6 L88,5 L88,5 Z M86,5 L87,5 L87,6 L86,6 L86,5 L86,5 Z M84,5 L85,5 L85,6 L84,6 L84,5 L84,5 Z M96,15 L84,15 L84,7 L96,7 L96,15 L96,15 Z M96,6 L90,6 L90,5 L96,5 L96,6 L96,6 Z M97,5 C97,4.45 96.55,4 96,4 L84,4 C83.45,4 83,4.45 83,5 L83,15 C83,15.55 83.45,16 84,16 L96,16 C96.55,16 97,15.55 97,15 L97,5 L97,5 Z" id="1" fill="#f2f2f2"></path>
                <path d="M146,165 L147,165 L147,166 L146,166 L146,165 L146,165 Z M144,165 L145,165 L145,166 L144,166 L144,165 L144,165 Z M142,165 L143,165 L143,166 L142,166 L142,165 L142,165 Z M154,175 L142,175 L142,167 L154,167 L154,175 L154,175 Z M154,166 L148,166 L148,165 L154,165 L154,166 L154,166 Z M155,165 C155,164.45 154.55,164 154,164 L142,164 C141.45,164 141,164.45 141,165 L141,175 C141,175.55 141.45,176 142,176 L154,176 C154.55,176 155,175.55 155,175 L155,165 L155,165 Z" id="1" fill="#f2f2f2"></path>
                <path d="M5,15 L6,15 L6,16 L5,16 L5,15 L5,15 Z M3,15 L4,15 L4,16 L3,16 L3,15 L3,15 Z M1,15 L2,15 L2,16 L1,16 L1,15 L1,15 Z M13,25 L1,25 L1,17 L13,17 L13,25 L13,25 Z M13,16 L7,16 L7,15 L13,15 L13,16 L13,16 Z M14,15 C14,14.45 13.55,14 13,14 L1,14 C0.45,14 0,14.45 0,15 L0,25 C0,25.55 0.45,26 1,26 L13,26 C13.55,26 14,25.55 14,25 L14,15 L14,15 Z" id="1" fill="#f2f2f2"></path>
            </g>
            <g id="Main" transform="translate(48.000000, 58.000000)" stroke-width="2" stroke-linecap="round" stroke-linejoin="round">
                <rect id="Window" stroke="#333333" fill-opacity="0.75999999" fill="#cfd3d3" x="0" y="0" width="140" height="120" rx="3"></rect>
                <g transform="translate(15.000000,116.000000) scale(0.016000,-0.016000)" fill="#4d4d4d" stroke="none">
                    <path d="M3450 6991 c0 -5 -73 -51 -162 -103 -90 -51 -174 -103 -188 -115 l-25 -21 -3 -219 c-2 -137 1 -231 7 -253 9 -27 25 -44 71 -73 34 -21 71 -42                    83 -48 12 -5 36 -18 52 -29 17 -11 44 -27 62 -36 17 -9 36 -28 42 -41 7 -14 11 -90 11 -187 0 -188 -7 -176 100 -176 107 0 100 -12 100 176 0 97 4 173 11                    187 6 13 25 32 42 41 18 9 46 25 62 36 17 11 40 24 52 29 63 28 143 88 153 115 6 17 10 117 10 235 0 176 -3 211 -18 240 -14 28 -49 53 -187 132 -93 54                    -171 103 -173 109 -4 12 -102 14 -102 1z m98 -248 c46 -31 66 -42 97 -57 75 -37 76 -38 73 -181 l-3 -130 -95 -57 c-52 -32 -106 -58 -120 -58 -14 0 -68 26                    -120 58 l-95 57 -3 131 -3 131 38 24 c53 34 73 46 111 65 18 9 35 20 38 25 9 15 54 10 82 -8z" ></path>                    <path d="M5496 6089 c-34 -9 -305 -275 -332 -324 -19 -36 -20 -31 36 -225 11 -36 22 -86 26 -112 l6 -46 -109 -109 c-165 -165 -156 -138 -72 -222 70 -70 72 -71 92 -54 11 10 69 67 129 127 l109 108 47 -6 c26 -4 76 -15 112 -25 36 -10 92 -26 126 -36 59 -17 62 -17 100 3 21 11 103 86 182 166 l142 145 0 53 c0 48 -10 93 -55 253 -8 28 -17 66 -21 85 -16 85 -58 128 -144 144 -35 7 -68 16 -205 55 -89 25 -133 30 -169 20z m156 -235 c148 -36 154 -40 172 -95 15 -46 28 -96 43 -172 5 -25 -5 -38 -84 -118 -99 -98 -97 -98 -198 -64 -22 7 -56 16 -76 19 -42 7 -75 39 -84 81 -4 17 -13 50 -20 75 -32 110 -34 103 62 201 48 49 94 89 104 89 10 0 46 -7 81 -16z"></path>
                    <path d="M1340 6071 c-65 -22 -128 -39 -190 -51 -106 -23 -147 -60 -164 -150 -6 -34 -20 -86 -51 -192 -25 -85 -33 -148 -24 -180 10 -38 270 -303 323 -330 38 -20 41 -20 100 -3 34 10 90 26 126 36 36 10 86 21 112 25 l47 6 109 -108 c60 -60 118 -117 129 -127 20 -17 22 -16 92 54 84 84 93 56 -73 221 l-108 108 6 47 c4 27 15 77 25 113 10 36 26 92 36 126 17 59 17 62 -3 100 -11 21 -85 103 -165 182 l-145 142 -63 0 c-35 -1 -89 -9 -119 -19z m193 -290 c96 -97 95 -96 62 -196 -7 -22 -16 -56 -19 -76 -8 -44 -41 -77 -86 -85 -19 -3 -53 -12 -75 -19 -100 -33 -99 -34 -197 62 -86 84 -90 90 -84 123 12 73 27 137 42 177 18 45 22 48 184 91 74 21 81 17 173 -77z"></path> 
                    <path d="M3257 5434 c-63 -33 -120 -91 -148 -151 -17 -38 -23 -73 -27 -166 -4 -117 -5 -118 -33 -132 -15 -8 -34 -15 -40 -15 -19 0 -135 -48 -196 -81 -29 -16 -60 -29 -69 -29 -8 0 -50 33 -93 74 -87 83 -113 98 -192 116 -76 17 -171 -4 -231 -51 -55 -43 -183 -172 -226 -226 -48 -62 -69 -150 -53 -227 17 -83 32 -108 117 -197 41 -43 74 -84 74 -91 0 -7 -15 -44 -34 -83 -58 -120 -76 -162 -76 -179 0 -9 -7 -30 -15 -45 -14 -28 -14 -29 -134 -33 -65 -2 -125 -9 -133 -15 -7 -6 -24 -14 -38 -18 -41 -13 -87 -54 -127 -113 l-38 -57 -3 -197 c-3 -193 -3 -199 22 -253 13 -30 44 -73 69 -96 64 -61 121 -80 255 -86 111 -5 113 -6 127 -34 8 -15 15 -35 15 -43 0 -17 23 -72 76 -181 19 -38 34 -76 34 -83 0 -7 -33 -48 -73 -90 -93 -97 -102 -113 -117 -192 -11 -56 -11 -75 3 -128 18 -73 48 -113 167 -231 105 -103 140 -127 216 -147 49 -13 69 -13 119 -3 78 15 114 37 201 121 40 37 79 68 87 68 8 0 46 -15 83 -34 38 -19 96 -44 129 -56 33 -12 74 -28 91 -35 l31 -13 5 -119 c4 -93 10 -128 27 -166 29 -63 89 -123 154 -153 49 -22 63 -24 237 -24 175 0 188 2 237 24 123 58 183 171 183 344 l0 92 33 14 c17 8 59 24 92 36 33 12 91 37 129 56 37 19 75 34 83 34 8 0 49 -33 92 -74 89 -85 114 -100 196 -116 70 -13 154 4 214 44 47 31 217 201 248 247 38 57 56 151 42 218 -14 73 -38 111 -121 197 -37 40 -68 79 -68 87 0 8 15 46 34 83 19 38 44 96 56 129 12 33 28 74 35 91 l14 32 113 4 c94 4 122 9 169 30 70 32 125 86 156 155 24 52 24 59 21 251 l-3 197 -38 58 c-72 106 -138 138 -299 145 -70 2 -121 9 -127 16 -4 6 -15 34 -24 61 -26 84 -45 131 -77 189 -16 31 -30 64 -30 72 0 9 31 48 68 88 84 87 107 124 122 199 14 69 2 138 -35 202 -28 49 -206 230 -260 266 -22 14 -66 32 -98 39 -51 12 -67 11 -132 -4 -71 -17 -79 -21 -165 -102 -49 -46 -96 -84 -104 -84 -8 0 -45 15 -82 34 -38 19 -96 44 -129 56 -33 12 -74 28 -91 35 l-31 13 -6 114 c-6 136 -26 193 -89 258 -82 83 -106 90 -329 90 -187 -1 -196 -2 -242 -26z m428 -221 c24 -36 25 -44 25 -186 0 -83 5 -157 10 -168 12 -21 80 -59 106 -59 47 0 256 -85 353 -145 44 -26 70 -35 102 -35 43 0 48 3 149 105 154 154 171 155 314 11 86 -85 96 -99 96 -131 0 -50 -6 -59 -120 -175 -97 -98 -100 -103 -100 -147 0 -32 9 -61 33 -102 17 -31 43 -79 56 -106 13 -28 28 -58 33 -68 13 -28 58 -168 58 -184 0 -19 37 -90 52 -100 7 -4 88 -10 180 -13 159 -5 168 -6 192 -29 26 -24 26 -26 26 -182 l0 -158 -37 -26 c-36 -24 -43 -25 -191 -25 l-154 0 -28 -30 c-17 -18 -33 -50 -39 -80 -11 -51 -45 -157 -60 -188 -4 -9 -19 -39 -32 -67 -13 -27 -39 -75 -56 -106 -23 -41 -33 -70 -33 -101 0 -41 4 -48 100 -146 110 -113 120 -127 120 -170 0 -35 -20 -62 -124 -164 -76 -74 -83 -78 -125 -78 -43 0 -47 3 -155 110 -107 106 -112 110 -154 110 -31 0 -60 -9 -100 -33 -120 -69 -310 -147 -359 -147 -24 0 -92 -39 -103 -59 -6 -11 -10 -87 -10 -175 l0 -154 -31 -31 -31 -31 -150 0 -150 0 -29 29 -29 29 0 157 c0 88 -4 165 -10 176 -11 20 -79 59 -103 59 -49 0 -258 85 -356 145 -44 26 -70 35 -104 35 -43 0 -48 -3 -146 -100 -114 -112 -125 -120 -176 -120 -32 0 -46 10 -134 100 -54 55 -101 110 -103 123 -9 48 12 83 117 187 102 101 105 106 105 149 0 32 -9 58 -35 102 -60 98 -145 307 -145 356 0 19 -37 90 -52 100 -7 4 -88 10 -180 13 -159 5 -168 6 -192 29 -26 24 -26 26 -26 181 0 155 0 157 26 181 24 23 33 24 192 29 92 3 173 9 180 13 16 11 52 81 52 103 0 47 85 256 145 353 26 44 35 70 35 102 0 42 -4 48 -101 148 -111 114 -135 154 -118 198 13 35 176 199 211 212 50 19 87 -3 198 -114 101 -101 106 -105 149 -105 32 0 58 9 102 35 97 60 306 145 353 145 26 0 94 38 106 59 6 11 10 87 10 175 0 152 0 155 26 185 l26 31 159 0 158 0 26 -37z"></path>
                    <path d="M3339 4300 c-26 -4 -56 -13 -67 -19 -11 -6 -28 -11 -37 -11 -31 0 -181 -82 -247 -136 -37 -30 -92 -85 -122 -122 -52 -64 -136 -216 -136 -245 0 -8 -8 -32 -17 -53 -26 -57 -26 -371 0 -428 9 -21 17 -45 17 -53 0 -29 84 -181 136 -245 30 -37 85 -92 122 -122 64 -52 216 -136 245 -136 8 0 32 -8 53 -17 59 -26 357 -26 434 1 77 26 152 58 170 72 8 6 25 15 38 18 12 4 22 11 22 16 0 5 9 11 19 15 26 8 165 147 198 198 53 82 103 180 103 202 0 7 8 30 17 51 25 57 25 371 0 428 -9 21 -17 45 -17 53 0 28 -82 178 -132 241 -28 35 -79 86 -112 113 -34 27 -67 54 -73 60 -22 17 -171 89 -186 89 -8 0 -32 7 -53 16 -45 19 -297 29 -375 14z m346 -223 c17 -9 36 -17 44 -17 8 0 46 -20 86 -45 127 -79 214 -192 262 -339 32 -97 32 -255 0 -352 -64 -196 -205 -337 -401 -401 -97 -32 -255 -32 -353 0 -194 63 -331 198 -400 396 -32 92 -33 272 -2 362 61 176 201 326 362 385 82 30 103 33 237 30 103 -2 142 -7 165 -19z"></path>
                    <path d="M375 3969 c-22 -12 -47 -27 -56 -35 -8 -8 -19 -14 -23 -14 -13 0 -200 -112 -248 -149 l-47 -36 0 -235 0 -235 46 -35 c49 -37 69 -50 118 -75 17 -9 44 -24 60 -35 108 -70 197 -112 224 -107 40 8 373 205 398 235 17 20 23 40 23 78 0 27 5 55 12 62 9 9 70 12 214 12 231 0 214 -8 214 100 0 108 17 100 -214 100 -144 0 -205 3 -214 12 -7 7 -12 35 -12 63 0 37 -6 57 -23 77 -28 35 -378 238 -409 238 -13 0 -41 -9 -63 -21z m116 -237 c13 -10 31 -22 39 -26 17 -8 37 -19 93 -54 l37 -24 0 -128 0 -128 -37 -24 c-56 -35 -76 -46 -93 -54 -8 -4 -26 -16 -39 -26 -13 -10 -35 -18 -48 -18 -25 0 -211 103 -225 124 -4 6 -8 63 -8 126 0 63 4 120 8 126 14 22 198 123 223 124 15 0 37 -8 50 -18z"></path> 
                    <path d="M6355 3885 c-99 -59 -190 -118 -202 -133 -17 -20 -23 -40 -23 -77 0 -28 -5 -56 -12 -63 -9 -9 -70 -12 -214 -12 -231 0 -214 8 -214 -100 0 -108 -17 -100 214 -100 144 0 205 -3 214 -12 7 -7 12 -35 12 -62 0 -38 6 -58 23 -78 25 -31 357 -226 397 -235 29 -5 74 16 225 108 17 10 44 25 60 34 49 25 69 38 118 75 l46 35 0 235 0 235 -46 35 c-47 35 -69 49 -113 72 -14 7 -47 28 -75 46 -27 17 -53 32 -57 32 -4 0 -28 14 -53 31 -83 56 -96 53 -300 -66z m323 -192 c54 -31 100 -61 104 -67 4 -6 8 -63 8 -126 0 -63 -4 -120 -8 -126 -14 -21 -200 -124 -225 -124 -13 0 -35 8 -48 18 -13 10 -31 22 -39 26 -17 8 -37 19 -93 54 l-37 24 0 128 0 128 37 24 c56 35 76 46 93 54 8 4 26 16 39 26 37 28 66 22 169 -39z"></path>
                    <path d="M1745 1895 l-127 -127 -47 7 c-42 5 -91 18 -240 61 -29 9 -65 13 -79 9 -38 -10 -330 -301 -341 -341 -9 -34 -2 -88 25 -183 39 -138 44 -158 50 -191 17 -90 58 -127 164 -150 53 -11 111 -26 199 -51 35 -11 89 -19 118 -19 l54 0 145 143 c80 78 155 160 166 181 20 38 20 41 3 100 -10 34 -26 90 -36 126 -10 36 -21 86 -25 112 l-6 47 108 109 c164 164 153 139 91 203 -102 104 -77 108 -222 -36z m-330 -300 c22 -7 56 -16 76 -19 44 -8 77 -41 85 -86 3 -19 12 -53 19 -75 34 -101 34 -99 -64 -198 -80 -79 -93 -89 -118 -84 -76 15 -126 28 -172 43 -46 15 -51 19 -65 62 -21 66 -46 170 -46 191 0 10 40 56 89 104 97 96 96 95 196 62z"></path>
                    <path d="M5051 1949 c-70 -70 -71 -72 -54 -92 10 -11 67 -69 127 -129 l108 -109 -6 -47 c-4 -26 -15 -76 -26 -112 -56 -194 -55 -188 -36 -225 10 -19 85 -99 166 -179 l148 -146 54 0 c30 0 84 8 119 19 88 25 146 40 199 51 111 24 146 58 169 166 11 56 26 112 52 203 11 35 19 89 19 119 l0 54 -144 147 c-80 80 -161 155 -180 165 -40 21 -33 22 -226 -34 -36 -11 -86 -22 -112 -26 l-47 -6 -109 108 c-60 60 -118 117 -129 127 -20 17 -22 16 -92 -54z m732 -418 c79 -80 89 -93 84 -118 -15 -76 -28 -126 -42 -171 -16 -47 -20 -51 -67 -67 -49 -16 -116 -32 -173 -42 -27 -4 -39 4 -118 85 -96 99 -94 91 -62 202 7 25 18 64 24 87 7 24 19 47 29 52 23 12 184 55 226 60 6 0 50 -39 99 -88z"></path>
                    <path d="M3413 1303 c-10 -3 -13 -47 -13 -172 0 -131 -3 -171 -15 -188 -8 -11 -62 -49 -120 -82 -168 -99 -174 -103 -186 -141 -6 -22 -9 -115 -7 -252 3 -202 4 -219 23 -237 11 -10 95 -63 188 -116 92 -54 167 -101 167 -106 0 -5 23 -9 50 -9 28 0 50 4 50 9 0 5 53 40 118 77 208 120 239 142 251 176 14 40 15 425 1 464 -6 16 -25 38 -43 49 -59 36 -142 85 -157 92 -36 17 -101 66 -110 83 -6 10 -10 93 -10 183 0 141 -2 166 -16 171 -19 7 -153 7 -171 -1z m136 -577 c9 -7 36 -24 61 -37 25 -13 60 -35 78 -48 l32 -23 0 -124 c0 -136 -3 -143 -74 -179 -33 -17 -55 -30 -98 -57 -33 -23 -63 -23 -96 0 -43 27 -65 40 -98 57 -71 36 -74 43 -74 179 l0 124 33 23 c17 13 52 35 77 48 25 13 52 30 60 37 18 18 79 18 99 0z"></path>
                </g>
            </g>
        </g>
    </g>
</svg>